<svg width="18" height="18" viewBox="0 0 18 18" fill="none" xmlns="http://www.w3.org/2000/svg">
<path d="M10.4417 1.925L11.9083 4.85833C12.1083 5.26666 12.6417 5.65833 13.0917 5.73333L15.75 6.175C17.45 6.45833 17.85 7.69166 16.625 8.90833L14.5583 10.975C14.2083 11.325 14.0167 12 14.125 12.4833L14.7167 15.0417C15.1833 17.0667 14.1083 17.85 12.3167 16.7917L9.82499 15.3167C9.37499 15.05 8.63332 15.05 8.17499 15.3167L5.68332 16.7917C3.89999 17.85 2.81665 17.0583 3.28332 15.0417L3.87499 12.4833C3.98332 12 3.79165 11.325 3.44165 10.975L1.37499 8.90833C0.158319 7.69166 0.549985 6.45833 2.24999 6.175L4.90832 5.73333C5.34999 5.65833 5.88332 5.26666 6.08332 4.85833L7.54999 1.925C8.34999 0.33333 9.64998 0.33333 10.4417 1.925Z" fill="#FB6231" stroke="#151515" stroke-linecap="round" stroke-linejoin="round"/>
</svg>
